# xmcd
#
# Track frame offsets:
#	150
#	19624
#	42146
#	65534
#	81169
#	101186
#	118878
#	137282
#	155633
#	175631
#	198409
#	225636
#	246140
#	272429
#
# Disc length: 4169 seconds
#
# Revision: 0
# Processed by: cddbd v1.5.2PL0 Copyright (c) Steve Scherf et al.
# Submitted via: audiograbber 1.83.01
#
DISCID=b410470e
DTITLE=John Hiatt - walk on
DYEAR=1995
DGENRE=
TTITLE0=Cry Love
TTITLE1=You Must Go 
TTITLE2=Walk On
TTITLE3=Good As She Could Be 
TTITLE4=The River Knows Your Name
TTITLE5=Native Son 
TTITLE6=Dust Down A Country Road
TTITLE7=Ethylene 
TTITLE8=I Can't Wait 
TTITLE9=Shredding The Document 
TTITLE10=Wrote It Down And Burned It 
TTITLE11=Your Love Is My Rest 
TTITLE12=Friend Of Mine 
TTITLE13=Mile High 
EXTD=
EXTT0=
EXTT1=
EXTT2=
EXTT3=
EXTT4=
EXTT5=
EXTT6=
EXTT7=
EXTT8=
EXTT9=
EXTT10=
EXTT11=
EXTT12=
EXTT13=
PLAYORDER=
